PathFileType	4	(X/Y/Z)	Run_200 02
DataRate	CameraRate	NumFrames	NumMarkers	Units	OrigDataRate	OrigDataStartFrame	OrigNumFrames
100	100	6	42	mm	100	212	128
Frame#	Time	RASI			LPSI			RPSI			RTH2			RTH3			LTH1			LTH2			LTH3			RTB1			RTB2			LTB1			LTB2			LTB3			RCAL			RMT5			LCAL			LTOE			LMT5			LACR			RACR			CLAV			C7			RUA1			RUA2			RUA3			RLEL			LUA1			LUA2			LUA3			LLEL			RFAsuperior			RFAradius			RFAulna			LFAsuperior			LFAradius			LFAulna			RTOE			RTH1			LMEL			RTB3			RMEL			LASI			
		X1	Y1	Z1	X2	Y2	Z2	X3	Y3	Z3	X4	Y4	Z4	X5	Y5	Z5	X6	Y6	Z6	X7	Y7	Z7	X8	Y8	Z8	X9	Y9	Z9	X10	Y10	Z10	X11	Y11	Z11	X12	Y12	Z12	X13	Y13	Z13	X14	Y14	Z14	X15	Y15	Z15	X16	Y16	Z16	X17	Y17	Z17	X18	Y18	Z18	X19	Y19	Z19	X20	Y20	Z20	X21	Y21	Z21	X22	Y22	Z22	X23	Y23	Z23	X24	Y24	Z24	X25	Y25	Z25	X26	Y26	Z26	X27	Y27	Z27	X28	Y28	Z28	X29	Y29	Z29	X30	Y30	Z30	X31	Y31	Z31	X32	Y32	Z32	X33	Y33	Z33	X34	Y34	Z34	X35	Y35	Z35	X36	Y36	Z36	X37	Y37	Z37	X38	Y38	Z38	X39	Y39	Z39	X40	Y40	Z40	X41	Y41	Z41	X42	Y42	Z42	

204	2.23	1055.757021	1016.876259	-243.129546	883.6045810000001	1081.319668	-417.718128	890.665941	1071.298584	-305.106381	932.228646	747.965952	-210.93257	974.552339	595.822886	-220.855593	998.981566	902.362752	-549.064841	976.920161	738.663559	-496.619709	1065.909558	624.905574	-494.082189	886.273884	381.81749	-283.824942	813.700077	429.772286	-208.356377	1138.000871	409.563221	-416.004582	1033.310154	319.838699	-465.308981	1055.442124	206.703797	-397.644236	541.684587	383.618262	-264.177399	571.931093	178.196495	-218.639682	895.111304	100.390551	-369.097664	1132.572057	74.391221	-359.694031	1083.770665	37.860997	-457.26814	1015.714956	1500.502869	-538.401046	1068.489647	1486.851886	-215.356906	1108.14596	1453.968498	-351.620542	986.3435019999999	1524.672899	-375.256965	960.434396	1396.537173	-143.293508	1001.541894	1330.90639	-122.898898	935.700891	1257.848051	-76.503632	901.1468620000001	1204.119658	-47.506791	903.4508520000001	1408.04952	-583.20406	926.403747	1325.641125	-601.37283	846.803861	1265.173631	-610.476778	821.395344	1201.6142	-626.090101	982.4619300000001	1130.736805	-64.379749	1104.464234	1063.201631	-181.470026	1086.369082	1024.139394	-128.049606	885.458602	1145.468273	-633.3360290000001	1068.923336	1142.854505	-577.973239	1053.268974	1079.211991	-607.349242	612.923391	157.008148	-315.036678	985.664391	892.794475	-200.759393	825.390928	1181.876717	-537.3010399999999	703.191721	326.767452	-281.338212	883.583443	1180.915575	-133.673355	1043.044506	1013.814692	-469.805549	
205	2.24	1053.811111	1013.064414	-243.137801	883.589884	1077.014858	-418.651421	889.318534	1067.301274	-305.929333	936.0940450000001	743.02476	-212.757185	984.17661	592.267184	-220.982434	999.389503	898.328684	-548.255128	974.489999	734.736224	-495.441535	1062.36912	619.792905	-493.36638	899.714048	379.558955	-283.204062	827.847699	428.590228	-207.703803	1129.513392	402.747642	-415.175712	1022.261972	316.045933	-464.567584	1039.518507	202.999858	-396.903971	553.6807229999999	384.71387	-264.208806	586.937688	180.726574	-214.968733	875.331547	100.918621	-369.332244	1112.687625	73.466249	-359.724813	1063.265078	37.075555	-456.133126	1015.647428	1495.363928	-539.641115	1067.060401	1483.031368	-215.54285	1107.361971	1449.616734	-351.721365	985.883144	1520.791404	-376.046468	957.34988	1393.420311	-144.534903	997.452192	1327.43906	-123.919503	929.334013	1255.265715	-78.961097	893.635175	1201.900665	-50.228201	907.204899	1398.336094	-583.912789	931.931074	1316.6908	-603.435894	855.026683	1253.15269	-614.670102	832.193818	1189.109354	-631.274218	972.660216	1124.385085	-62.62689	1093.293425	1045.510821	-174.134192	1072.507366	1011.011997	-119.284079	896.398236	1132.486184	-636.893926	1078.500258	1128.59622	-576.834078	1063.039009	1065.48811	-607.017551	627.15683	158.076644	-311.545337	984.91712	889.042061	-200.664153	834.122611	1169.671573	-542.530008	716.226106	326.968802	-280.538981	878.179313	1177.635767	-136.438486	1042.972189	1009.385048	-470.837759	
206	2.25	1051.716194	1010.456672	-243.047707	883.508769	1074.215081	-420.011431	887.868727	1064.574596	-307.294391	940.305277	739.323435	-214.369368	994.293512	589.98507	-220.997696	999.647082	895.3684960000001	-547.6751400000001	971.286218	732.257107	-495.078337	1057.459418	615.551414	-492.743902	913.9792650000001	377.836624	-282.249375	842.201744	427.67683	-207.279319	1119.505467	397.059929	-414.396223	1009.902447	313.415693	-463.83437	1023.017215	200.299325	-396.217754	566.505006	384.301433	-264.543457	603.765669	182.000214	-211.770439	855.569394	101.733885	-369.42271	1092.730409	73.03927400000001	-359.687872	1042.632197	36.230613	-454.2449	1016.198877	1491.432545	-540.646432	1065.644884	1480.094291	-215.817055	1106.589256	1446.26717	-351.750865	985.147515	1517.808839	-376.773896	954.0842689999999	1391.507036	-145.766502	993.16258	1325.349656	-124.669024	922.838659	1254.380714	-81.12916	886.247639	1201.412029	-52.61931	911.104376	1390.217041	-582.905647	937.534231	1309.979957	-605.627876	863.700854	1243.321515	-618.830079	843.805441	1178.754604	-636.346267	963.001893	1120.409336	-61.003568	1081.105917	1030.066267	-167.186653	1058.334278	1000.711761	-110.455955	908.459217	1122.387164	-640.478557	1088.557155	1116.261986	-575.034048	1073.34557	1053.983153	-606.856955	643.8252179999999	158.213496	-308.255439	983.203832	886.424828	-200.450854	843.361393	1159.322922	-547.629191	730.4431970000001	326.750402	-279.941031	872.629606	1176.032941	-138.559244	1042.833326	1006.459506	-472.295158	
207	2.26	1049.509024	1009.017774	-242.894441	883.0411769999999	1073.022194	-421.169237	886.229143	1063.029292	-308.575616	944.770247	736.973123	-215.499671	1004.743699	588.99704	-220.652227	999.3842079999999	893.637284	-547.507764	967.572978	731.047004	-495.700468	1051.480343	612.439636	-492.416271	929.01422	377.209728	-281.16026	856.56411	427.180316	-207.062742	1108.346224	392.883589	-413.939952	996.451043	312.283221	-463.259825	1006.291463	198.757319	-395.836169	580.062505	382.30952	-265.069966	622.045362	181.914123	-209.133144	836.0112	102.838346	-369.287185	1072.948369	72.745074	-359.696385	1022.3041	35.904065	-453.373081	1017.477649	1488.682283	-541.402887	1064.059282	1478.297005	-216.038591	1105.81343	1444.231704	-351.656729	984.407732	1516.084036	-377.666242	950.488873	1390.781152	-147.08637	988.5528880000001	1324.68016	-125.096163	916.112969	1255.071799	-82.91650799999999	878.7113000000001	1202.709512	-54.522786	914.882978	1384.080683	-581.954323	943.439734	1305.362538	-607.6879259999999	872.600834	1235.973167	-622.698549	855.409725	1171.083814	-641.003453	953.069783	1118.659149	-59.224264	1068.247544	1017.63402	-160.47204	1043.97866	993.409969	-101.916914	920.78624	1115.550496	-643.783986	1098.560262	1107.138712	-572.862753	1083.923184	1045.710867	-606.599508	662.514773	157.310671	-305.282399	981.110809	884.732722	-200.2521	852.315692	1151.448892	-552.319106	745.588337	326.160425	-279.626028	866.885127	1176.202907	-140.074346	1042.308321	1005.142764	-473.552681	
208	2.27	1047.262341	1008.742794	-242.637323	882.561047	1073.203526	-422.061053	884.4279340000001	1062.721922	-309.454835	949.247011	736.073364	-216.3244	1015.182386	589.580299	-220.148323	998.638473	892.962676	-547.43551	963.287552	730.663777	-497.060293	1044.46221	610.343055	-492.430324	944.6658640000001	378.215052	-280.590346	871.02296	427.38749	-207.206264	1095.975952	389.784158	-413.894658	981.935733	311.922788	-462.877466	989.273286	197.905269	-395.721895	594.205891	378.685938	-265.692319	641.760585	180.453038	-207.07843	816.5249710000001	103.979583	-369.062847	1053.237658	72.379538	-359.746749	1002.278248	36.171191	-453.88699	1019.355945	1487.263399	-541.8620989999999	1062.185844	1477.835167	-216.091822	1105.022019	1443.694392	-351.357606	983.8218879999999	1515.70515	-378.650489	946.578662	1391.412492	-148.455009	983.593292	1325.539639	-125.19	909.122812	1257.3436	-84.238747	870.725637	1205.7823	-55.866629	918.75198	1380.457906	-582.631122	949.695893	1302.691689	-609.366207	881.297172	1231.36146	-626.122244	866.149008	1166.318729	-645.021743	942.410284	1118.903637	-57.024723	1054.929507	1009.030446	-154.036502	1029.585703	989.2762279999999	-93.972942	932.321645	1111.716133	-646.42414	1107.924456	1102.381818	-570.580962	1094.370058	1041.488705	-605.8225190000001	682.866574	155.410648	-302.885497	979.338425	884.189262	-199.984594	860.304587	1146.401894	-556.376984	761.376612	325.241371	-279.62788	860.866438	1178.233207	-141.077857	1041.771337	1005.204104	-474.549754	
209	2.28	1045.13168	1009.649084	-242.319728	882.482029	1074.40981	-422.908764	882.684989	1063.699245	-310.062062	953.552396	736.635869	-217.075694	1025.17997	591.972526	-219.960369	997.586148	893.098476	-547.143409	958.296818	730.980872	-498.67489	1036.4145	609.100131	-492.613272	960.547201	380.742148	-281.030836	885.6221860000001	428.407619	-207.830935	1082.221211	387.289733	-413.834072	966.534857	311.654356	-462.644966	971.777442	197.374808	-395.706075	608.7759569999999	373.424062	-266.383308	662.973388	177.669797	-205.64151	796.920262	105.093262	-369.009359	1033.436377	72.05237099999999	-359.890298	982.248792	36.584055	-454.772694	1021.6582	1487.375452	-542.024102	1060.008184	1478.706755	-215.930593	1104.241735	1444.56777	-350.784241	983.396162	1516.504096	-379.518241	942.419166	1393.565511	-149.787457	978.250281	1327.981772	-124.939014	901.809335	1261.294001	-84.978668	862.100541	1210.617856	-56.668013	923.153313	1379.539657	-585.218825	956.017742	1301.930951	-610.614423	889.234827	1229.567584	-629.072629	875.494473	1164.339845	-648.3607500000001	930.965705	1121.21531	-54.392596	1041.403327	1004.984679	-147.963034	1015.376837	988.501405	-86.779516	942.409706	1110.462891	-648.184809	1116.229827	1102.570503	-568.205137	1104.248411	1041.687378	-604.149729	704.702284	152.725381	-301.225978	978.330711	885.080167	-199.614387	867.020703	1144.192795	-559.762172	777.698276	323.9432	-279.895251	854.297805	1182.21054	-141.567057	1041.635287	1006.289997	-475.503113	
